<?xml version="1.0" encoding="UTF-8"?>
<svg width="339px" height="214px" viewBox="0 0 339 214" version="1.1" xmlns="http://www.w3.org/2000/svg" xmlns:xlink="http://www.w3.org/1999/xlink">
    <!-- Generator: sketchtool 52.5 (67469) - http://www.bohemiancoding.com/sketch -->
    <title>08E77668-C567-42FD-88C8-07047EFAE834</title>
    <desc>Created with sketchtool.</desc>
    <g id="Design-Develop" stroke="none" stroke-width="1" fill="none" fill-rule="evenodd">
        <g id="search-notfound" transform="translate(-568.000000, -392.000000)">
            <g id="Group-9" transform="translate(568.000000, 392.000000)">
                <g id="headhunting" transform="translate(0.000000, 40.000000)" fill="#D9DADD">
                    <g id="Group-3" transform="translate(309.000000, 34.000000)">
                        <polygon id="Path" points="9.75 0 19.875 0 19.875 10.4625 9.75 10.4625"></polygon>
                        <polygon id="Path" points="9.75 20.5375 19.875 20.5375 19.875 31 9.75 31"></polygon>
                        <polygon id="Path" points="19.875 10.4625 30 10.4625 30 20.925 19.875 20.925"></polygon>
                        <polygon id="Path" points="0 10.4625 10.125 10.4625 10.125 20.925 0 20.925"></polygon>
                    </g>
                    <g id="Group-7" transform="translate(41.000000, 97.500000) scale(-1, 1) translate(-41.000000, -97.500000) translate(0.000000, 47.000000)">
                        <polygon id="Path" points="39 0 45 0 45 6 39 6"></polygon>
                        <polygon id="Path" points="39 12 45 12 45 18 39 18"></polygon>
                        <polygon id="Path" points="45 6 51 6 51 12 45 12"></polygon>
                        <polygon id="Path" points="33 6 39 6 39 12 33 12"></polygon>
                        <g id="Group-2" transform="translate(52.000000, 24.000000)">
                            <polygon id="Path" points="9.75 0 19.875 0 19.875 10.4625 9.75 10.4625"></polygon>
                            <polygon id="Path" points="9.75 20.5375 19.875 20.5375 19.875 31 9.75 31"></polygon>
                            <polygon id="Path" points="19.875 10.4625 30 10.4625 30 20.925 19.875 20.925"></polygon>
                            <polygon id="Path" points="0 10.4625 10.125 10.4625 10.125 20.925 0 20.925"></polygon>
                        </g>
                        <path d="M9,74 L18,74 L18,83 L9,83 L9,74 Z M9,92 L18,92 L18,101 L9,101 L9,92 Z M18,83 L27,83 L27,92 L18,92 L18,83 Z M0,83 L9,83 L9,92 L0,92 L0,83 Z" id="Combined-Shape-Copy"></path>
                    </g>
                    <g id="Group-6" transform="translate(246.000000, 0.000000)">
                        <polygon id="Path" points="6 0 12 0 12 6 6 6"></polygon>
                        <polygon id="Path" points="6 12 12 12 12 18 6 18"></polygon>
                        <polygon id="Path" points="12 6 18 6 18 12 12 12"></polygon>
                        <polygon id="Path" points="0 6 6 6 6 12 0 12"></polygon>
                    </g>
                    <path d="M296,65 L302,65 L302,71 L296,71 L296,65 Z M296,77 L302,77 L302,83 L296,83 L296,77 Z M302,71 L308,71 L308,77 L302,77 L302,71 Z M290,71 L296,71 L296,77 L290,77 L290,71 Z" id="Combined-Shape"></path>
                    <g id="Group" transform="translate(215.000000, 136.000000)">
                        <polygon id="Path" points="7.66666667 0 15.3333333 0 15.3333333 7.66666667 7.66666667 7.66666667"></polygon>
                        <polygon id="Path" points="7.66666667 15.3333333 15.3333333 15.3333333 15.3333333 23 7.66666667 23"></polygon>
                        <polygon id="Path" points="15.3333333 7.66666667 23 7.66666667 23 15.3333333 15.3333333 15.3333333"></polygon>
                        <polygon id="Path" points="0 7.66666667 7.66666667 7.66666667 7.66666667 15.3333333 0 15.3333333"></polygon>
                    </g>
                </g>
                <g id="checklist" transform="translate(93.000000, 15.000000)">
                    <path d="M13.8544593,125 L76.1212493,125 L76.1212493,119.507738 L13.8544593,119.507738 C9.26362427,119.507738 5.54164488,115.81985 5.54164488,111.271066 L5.54164488,13.727558 C5.54164488,9.17739688 9.26362427,5.49088559 13.8544593,5.49088559 L125.144152,5.49088559 C129.73707,5.49088559 133.456966,9.17739688 133.456966,13.727558 L133.456966,48.3060995 L139,48.3060995 L139,13.727558 C138.990971,6.1494615 132.792997,0.00894612868 125.144152,0 L13.8544593,0 C6.20769781,0.00894612868 0.00972340239,6.1494615 1.06319966e-12,13.727558 L0,111.271066 C0.00972340239,118.849162 6.20769781,124.989677 13.8544593,125 Z" id="Path" fill="#D9DADD"></path>
                    <polygon id="Path" fill="#A81543" points="11.0182927 10.9797297 16.1036585 10.9797297 16.1036585 16.0472973 11.0182927 16.0472973"></polygon>
                    <polygon id="Path" fill="#A81543" points="22.8841463 10.9797297 27.9695122 10.9797297 27.9695122 16.0472973 22.8841463 16.0472973"></polygon>
                    <polygon id="Path" fill="#A81543" points="33.902439 10.9797297 38.9878049 10.9797297 38.9878049 16.0472973 33.902439 16.0472973"></polygon>
                    <polygon id="Path" fill="#D9DADD" points="11.0182927 26.1824324 133.914634 26.1824324 133.914634 31.25 11.0182927 31.25"></polygon>
                </g>
                <path d="M203.66129,61 C226.632734,61 245.322581,79.6879095 245.322581,102.66129 C245.322581,112.003308 242.193722,120.607186 236.980248,127.565264 L244.160156,134.744204 L247.306452,131.597908 L281.956385,166.245905 C283.918945,168.212339 285,170.822951 285,173.598239 C285,179.333835 280.333835,184 274.600176,184 C271.821013,184 269.208464,182.918945 267.245905,180.952511 L232.597908,146.306452 L235.744204,143.160156 L228.565264,135.980248 C221.607186,141.193722 213.003308,144.322581 203.66129,144.322581 C180.689847,144.322581 162,125.634671 162,102.66129 C162,79.6879095 180.689847,61 203.66129,61 Z M270.05316,178.149131 C271.265956,179.363864 272.880757,180.032258 274.600176,180.032258 C278.147508,180.032258 281.032258,177.145571 281.032258,173.598239 C281.032258,171.880757 280.363864,170.265956 279.149131,169.049285 L247.306452,137.208543 L238.208543,146.306452 L270.05316,178.149131 Z M238.549521,140.354839 L241.354839,137.549521 L234.443257,130.636002 C233.552065,131.616313 232.616313,132.550128 231.636002,133.443257 L238.549521,140.354839 Z M203.66129,138.048589 C223.166688,138.048589 239.034084,122.174686 239.034084,102.66129 C239.034084,83.1478945 223.166688,67.2739919 203.66129,67.2739919 C184.155893,67.2739919 168.288497,83.1478945 168.288497,102.66129 C168.288497,122.174686 184.155893,138.048589 203.66129,138.048589 Z" id="Combined-Shape-Copy-2" fill="#96284B" fill-rule="nonzero"></path>
            </g>
        </g>
    </g>
</svg>